#!OML:ASF F:\VICON\USERDATA\INSTALL\rory3\rory3.ASF
:FULLY-SPECIFIED
:DEGREES
99
root 0.30657192186248583 17.593769161491213 5.002698615665782 0.6189495565926333 -2.0986433035831693 -3.4398799583842217
lfemur -20.62265222439494 -1.1359583026341862 -17.798445565033123
ltibia 37.39628461884081
lfoot -6.446144265792009 -1.5965656722921677
ltoes -6.477989825665881
rfemur -5.871152974864801 2.962601340205005 28.567907406990148
rtibia 57.15110182342325
rfoot -3.475066171525102 -4.296247504708434
rtoes 3.5668999947447038
lowerback 12.822268086806686 1.6675581337333005 2.678334525829934
upperback -0.15547752611178678 2.5887435124451237 1.1564755752335643
thorax -7.174800026343921 1.2181329995283212 -0.6456674981748319
lowerneck -18.069882807421205 -3.779134390206443 -1.7309070681119223
upperneck 16.814909452032744 -5.068791127966806 2.176596931224597
head 8.352797408061761 -2.3104464347575133 0.37969303824250566
lclavicle -7.9305677958111e-16 -6.798732565579663e-16
lhumerus -41.51284690809963 -0.31451924052089364 86.91307109744479
lradius 57.724712002047454
lwrist 13.946780275426299
lhand -28.197481513214832 13.08383624648478
lfingers 7.125020000000057
lthumb -1.5762916766567865 43.05766288164192
rclavicle -7.930567795811104e-16 -6.798732565579668e-16
rhumerus -32.93895529664397 -2.718975234232557 -88.2572046417103
rradius 63.005358739373726
rwrist -6.780637012632793
rhand -18.230196535133693 32.93163429726172
rfingers 7.125020000000057
rthumb 8.048644901004847 -1.8840734613078567
100
root 0.2909686057500962 17.572199597973466 4.8709244503801115 0.6218212779569141 -1.8778390706560257 -3.245296609488957
lfemur -21.416766616909324 -0.8694145636807658 -18.092222987116976
ltibia 38.8759084685124
lfoot -7.440566299921649 -1.4755303190530427
ltoes -5.313516492536596
rfemur -5.525857662085084 2.9148844920843264 28.28552374936129
rtibia 57.38862016215093
rfoot -2.834656404035209 -4.934127953068703
rtoes 4.066479854769615
lowerback 12.990142472752341 1.7110871374690988 2.566027664376687
upperback -0.15344874114370488 2.6481518878932495 1.1042274612352188
thorax -7.256289509552768 1.2427470571372947 -0.6947084123931985
lowerneck -18.093990522488024 -3.863530005165624 -1.740950336172471
upperneck 16.646473342961347 -5.190068073471332 2.2479233394980005
head 8.306900852010937 -2.3655982106960054 0.3951182844727262
lclavicle -8.1379272794662845e-16 -6.958930036499024e-16
lhumerus -42.32887024031325 -0.7104802178193232 87.27887673135689
lradius 58.93071420554822
lwrist 14.638602614677195
lhand -28.096578544075506 12.977128378454461
lfingers 7.125020000000057
lthumb -1.4788547448080736 42.949300004886275
rclavicle -8.13792727946629e-16 -6.95893003649903e-16
rhumerus -32.68613370644305 -2.07687503165082 -88.7127483887179
rradius 64.1970127737321
rwrist -7.148121218602778
rhand -18.31584466228861 32.65656922044002
rfingers 7.125020000000057
rthumb 7.96597949003067 -1.6632400759140955
101
root 0.3046433152850441 17.580492094853735 6.342020514977481 0.4491076959546595 -1.8820514988179438 -3.187840240837532
lfemur -21.779906282500242 -0.7578333201831262 -18.154296959178435
ltibia 39.32248507488675
lfoot -7.362685170442541 -1.6140380346217182
ltoes -4.502295527280685
rfemur -4.972724223752616 2.971267859113436 28.143467096827372
rtibia 57.91367031740026
rfoot -1.8226904998931073 -5.3784613807150485
rtoes 4.493549387688379
lowerback 12.91092122260528 1.7548885278051713 2.594022695761474
upperback -0.17297510895463786 2.7252885784010026 1.0909525785099452
thorax -7.22810434954497 1.2739663557183092 -0.7451130104120384
lowerneck -18.04828875181006 -3.8774459960881935 -1.7494709541824724
upperneck 16.815977811608207 -5.204298732007296 2.2046449048355776
head 8.35657402433503 -2.3766765620244263 0.38324301560442714
lclavicle -7.918716865385811e-16 -6.789213710676647e-16
lhumerus -42.82788811221505 -0.3943150865179703 87.16100107682205
lradius 58.291375326727426
lwrist 14.4557517176059
lhand -28.04461274144047 13.170185538256467
lfingers 7.125020000000057
lthumb -1.428668464900238 43.13941343092922
rclavicle -7.918716865385812e-16 -6.789213710676648e-16
rhumerus -32.23988537654746 -2.1792670855419507 -88.60464538754736
rradius 64.00951391082478
rwrist -7.104415883912848
rhand -18.249035401618727 32.2077635004846
rfingers 7.125020000000057
rthumb 8.030540691482539 -1.9360155351224009
102
root 0.3050301764299683 17.546492022041328 5.799370287544321 0.4115951818525558 -1.8128196082350692 -2.98107659076014
lfemur -21.509526990437987 -0.5874028409373718 -18.391554590967864
ltibia 40.02843588300249
lfoot -8.72399566233785 -1.0176732877436692
ltoes -4.916249418673461
rfemur -6.265368060150211 2.7361774586067265 27.6812078529407
rtibia 60.62432117073056
rfoot -2.4551658548902435 -5.892169587542078
rtoes 4.903316742522726
lowerback 13.104027381054722 1.7148175983786769 2.3244968880718093
upperback -0.12003613191067017 2.6499523177776427 1.0601430127126386
thorax -7.294129306048315 1.2419745786585068 -0.6183210754502119
lowerneck -18.158924827135472 -3.862330929223792 -1.7296648850050167
upperneck 16.73007927543951 -5.186496347682221 2.236086400616033
head 8.348560064085667 -2.366067982086871 0.3902966855681526
lclavicle -8.257224701522469e-16 -7.052831250757145e-16
lhumerus -42.52033780878959 -0.7438953080300663 87.36427945536822
lradius 58.53426422909813
lwrist 14.688783246412612
lhand -28.04213185129628 13.073443910165047
lfingers 7.125020000000057
lthumb -1.426287850374077 43.04131070545536
rclavicle -8.257224701522476e-16 -7.052831250757146e-16
rhumerus -32.24421527970466 -2.2945814216278793 -88.67971343711706
rradius 63.84656998380843
rwrist -6.957668450293317
rhand -18.335913368932793 32.26462151382151
rfingers 7.125020000000057
rthumb 7.946862354719195 -2.179157634395148
103
root 0.2716744584512441 17.46381474344528 3.4617393697011467 0.8390456329819523 -1.3731717760569326 -2.5866777488626345
lfemur -20.895758636235023 -0.30036845073981566 -18.86794178786916
ltibia 41.34940932654081
lfoot -11.336242290409963 0.0053956543147384295
ltoes -6.036185876033064
rfemur -9.076942262657639 2.352729983059086 26.98329631647666
rtibia 63.42040544593793
rfoot -4.61925495597934 -6.517327153071574
rtoes 4.455431881507678
lowerback 13.678262455197778 1.609977774321516 1.7473167015935287
upperback -0.05258462449149051 2.4338344957753564 0.9816055717783789
thorax -7.555330071824112 1.1516791021000397 -0.3445000890130966
lowerneck -18.49192842012076 -3.9279529766233066 -1.7286065316441483
upperneck 16.019470596658827 -5.298420465131681 2.478749846717145
head 8.179060206973062 -2.397045520630626 0.45986302795407386
lclavicle -8.267963522734754e-16 -7.062003611989006e-16
lhumerus -42.00918418516557 -2.6515679243988246 88.41346628201615
lradius 63.11237216540095
lwrist 16.468597590180977
lhand -28.073225108257084 12.056426760319095
lfingers 7.125020000000057
lthumb -1.456350094254997 42.02032446170239
rclavicle -8.267963522734757e-16 -7.062003611989006e-16
rhumerus -33.36372132415542 -1.0876146266176931 -89.62393209994755
rradius 67.04540567829153
rwrist -7.668063035423982
rhand -18.56348839984398 32.9214398674247
rfingers 7.125020000000057
rthumb 7.727260844240467 -1.6818349807190178
104
root 0.27756365022673424 17.44066252806482 2.9625701284412447 0.8629409634580907 -1.2531523716487638 -2.495227007237341
lfemur -20.241149709130827 -0.4378298728517601 -18.972980535702995
ltibia 41.08914906201302
lfoot -12.201575719519955 0.41410247268704126
ltoes -6.5869205200064656
rfemur -10.355942765514351 2.135806251522786 26.732136222017857
rtibia 63.59031905690884
rfoot -6.114367277202427 -6.544399545872786
rtoes 3.7247200954002575
lowerback 13.771266989720958 1.5199517899460484 1.5576346967766856
upperback -0.009015740435500602 2.27925353599329 0.9854357752500853
thorax -7.574861670090476 1.0831388930533223 -0.19175264881160126
lowerneck -18.509840731458542 -3.906790429278643 -1.7262969703881086
upperneck 15.975399725904019 -5.266915693708281 2.47089777048945
head 8.166227433911988 -2.3800916234540157 0.462870515305349
lclavicle -8.391570721085917e-16 -7.156216583122544e-16
lhumerus -41.07016564436933 -3.002088641910664 88.38762000969884
lradius 62.77727682116968
lwrist 16.30545495822137
lhand -28.222140689770786 12.183498522924445
lfingers 7.125020000000057
lthumb -1.60015726551372 42.14837335065416
rclavicle -8.391570721085923e-16 -7.15621658312255e-16
rhumerus -33.52422933943024 -1.4606799013588745 -89.43329865183375
rradius 66.33350111906252
rwrist -7.476299794960903
rhand -18.531214227721897 33.27819322095725
rfingers 7.125020000000057
rthumb 7.758317816985396 -1.8000649768753942
